<svg width="200" height="50" viewBox="0 0 200 50" fill="none" xmlns="http://www.w3.org/2000/svg">
  <rect width="50" height="50" rx="10" fill="#16a34a"/>
  <path d="M15 25C15 20 20 15 25 15C30 15 35 20 35 25C35 30 30 35 25 35C20 35 15 30 15 25Z" fill="white"/>
  <path d="M25 15V35M15 25H35" stroke="#16a34a" stroke-width="2"/>
  <path d="M30 20L20 30M20 20L30 30" stroke="#16a34a" stroke-width="2"/>
  <path d="M60 20H65L70 35H65L64 32H61L60 35H55L60 20ZM63 28L62.5 26L62 28H63Z" fill="#16a34a"/>
  <path d="M75 20H80V31H85V35H75V20Z" fill="#16a34a"/>
  <path d="M90 20H95V31H100V35H90V20Z" fill="#16a34a"/>
  <path d="M105 20H115V24H110V26H114V30H110V31H115V35H105V20Z" fill="#16a34a"/>
  <path d="M120 20H125L130 27V20H135V35H130L125 28V35H120V20Z" fill="#16a34a"/>
  <path d="M140 20H150C152.5 20 155 22 155 25C155 28 152.5 30 150 30H145V35H140V20ZM145 26H148C148.5 26 150 25.5 150 25C150 24.5 148.5 24 148 24H145V26Z" fill="#16a34a"/>
  <path d="M160 20H170C172.5 20 175 22 175 25C175 28 172.5 30 170 30H165V35H160V20ZM165 26H168C168.5 26 170 25.5 170 25C170 24.5 168.5 24 168 24H165V26Z" fill="#16a34a"/>
  <path d="M180 20H195V24H190V35H185V24H180V20Z" fill="#16a34a"/>
</svg>
